# xmcd
#
# Track frame offsets:
#	150
#	16078
#	31437
#	48896
#	67785
#	96180
#	128115
#	141122
#	170599
#	186316
#	214937
#
# Disc length: 3351 seconds
#
# Revision: 4
# Processed by: cddbd v1.5.2PL0 Copyright (c) Steve Scherf et al.
# Submitted via: audiograbber 1.83.01
#
DISCID=940d150b
DTITLE=Various Artist - stereoplay 2017-11 - References by Reference Recording
DTITLE=s
DYEAR=2017
DGENRE=Audiophile
TTITLE0=Doug MacLeod - Raylene
TTITLE1=Fiona Boyes - Stubborn Old Mule
TTITLE2=Reinaldo Brahn - Alma de atriz (Soul Of An Actress)
TTITLE3=Mike Garson - Let's Dance
TTITLE4=Moritz Moszkowski - Fackeltanz [San Francisco Ballet Orchestra - Martin
TTITLE4=West]
TTITLE5=Percy Grainger - Children's March [Dallas Wind Symphony - Jerry Junkin]
TTITLE6=Ottorino Respighi - War Dance from "Belkis, Queen of Sheba-Suite" [Minn
TTITLE6=esota Orchestra - Eije Oue]
TTITLE7=Ottorino Respighi - S. Michele Arcangelo [Pacific Symphony Orchestra - 
TTITLE7=Keith Clark]
TTITLE8=Sigfrid Karg-Elert - Praise The Lord With Drums And Cymbals [Paul Riedo
TTITLE8=Dallas Wind Symphony - Frederick Fennel]
TTITLE9=John Rutter - Requiem Aeternam [Turtle Creek Chorale - Women's Chorus D
TTITLE9=allas - Timothy Seelig]
TTITLE10=Johann Sebastian Bach - Präludium und Fuge D-Dur BWV 532 [Virgil Fox]
EXTD=
EXTT0=
EXTT1=
EXTT2=
EXTT3=
EXTT4=
EXTT5=
EXTT6=
EXTT7=
EXTT8=
EXTT9=
EXTT10=
PLAYORDER=
